<svg width="316" height="316" viewBox="0 0 316 316" fill="none" xmlns="http://www.w3.org/2000/svg">
<path d="M260.084 78.0052C260.727 77.8689 261.316 77.5445 261.775 77.073C261.721 77.3348 261.652 77.5932 261.569 77.8472C261.443 78.2738 261.917 78.4002 262.075 78.1316C262.634 77.3021 262.854 76.2903 262.691 75.3034C262.683 75.2102 262.648 75.1213 262.591 75.0472C262.534 74.9731 262.456 74.9169 262.368 74.8853C262.28 74.8538 262.185 74.8481 262.094 74.869C262.003 74.8899 261.919 74.9365 261.854 75.0032C261.19 75.809 261.064 76.9466 259.942 77.2942C259.853 77.3185 259.777 77.3755 259.728 77.4538C259.68 77.5321 259.663 77.6258 259.681 77.7161C259.699 77.8064 259.751 77.8864 259.826 77.9401C259.9 77.9938 259.993 78.017 260.084 78.0052ZM256.971 72.6806C257.06 72.7373 257.161 72.7692 257.266 72.773C257.371 72.7768 257.475 72.7524 257.567 72.7024C257.659 72.6523 257.736 72.5784 257.789 72.4884C257.843 72.3984 257.872 72.2956 257.872 72.1908C257.872 72.0644 257.872 71.9222 257.114 70.7846C256.956 70.5476 256.766 70.1052 256.355 70.3264C255.944 70.5476 256.229 70.9584 256.45 71.5114C256.892 72.6806 256.892 72.6806 256.971 72.6806ZM256.719 69.7892C257.493 69.7892 258.03 69.7892 258.125 70.437C258.137 70.5334 258.188 70.6209 258.265 70.6801C258.342 70.7394 258.439 70.7656 258.536 70.753C258.632 70.7405 258.719 70.6901 258.779 70.6131C258.838 70.536 258.864 70.4386 258.852 70.3422C258.727 69.8303 258.425 69.3788 258.001 69.0668C257.576 68.7548 257.055 68.6022 256.529 68.6358C256.404 68.6878 256.3 68.7804 256.235 68.8987C256.169 69.0171 256.145 69.1541 256.167 69.2876C256.189 69.4212 256.255 69.5434 256.356 69.6344C256.456 69.7255 256.584 69.78 256.719 69.7892ZM63.4688 117.948C59.0369 120.091 54.1598 121.153 49.2378 121.046C44.3159 120.939 39.4896 119.666 35.1552 117.331C35.0755 117.283 34.98 117.269 34.8897 117.291C34.7993 117.313 34.7215 117.37 34.6733 117.45C34.6251 117.53 34.6105 117.625 34.6327 117.715C34.6549 117.806 34.7121 117.884 34.7918 117.932C43.4502 123.572 56.1692 123.888 63.7058 118.358C63.7602 118.327 63.8 118.275 63.8163 118.214C63.8326 118.154 63.8241 118.089 63.7927 118.035C63.7612 117.98 63.7095 117.94 63.6487 117.924C63.588 117.908 63.5232 117.916 63.4688 117.948ZM62.2996 71.1006C63.2002 71.464 64.6854 71.1006 64.2904 70.2632C64.0267 69.6243 63.841 68.9559 63.7374 68.2724C63.7374 68.1761 63.6991 68.0836 63.6309 68.0155C63.5628 67.9473 63.4704 67.909 63.374 67.909C63.2776 67.909 63.1852 67.9473 63.117 68.0155C63.0489 68.0836 63.0106 68.1761 63.0106 68.2724C63.0011 68.941 63.0647 69.6085 63.2002 70.2632C62.9846 70.3858 62.7353 70.4357 62.4892 70.4054C62.4435 70.393 62.3959 70.3897 62.3489 70.3956C62.302 70.4016 62.2567 70.4167 62.2156 70.4402C62.1745 70.4637 62.1385 70.495 62.1095 70.5324C62.0805 70.5698 62.0592 70.6126 62.0468 70.6582C62.0343 70.7039 62.031 70.7515 62.037 70.7985C62.0429 70.8454 62.0581 70.8907 62.0815 70.9318C62.105 70.9729 62.1364 71.0089 62.1738 71.0379C62.2112 71.0669 62.2539 71.0882 62.2996 71.1006ZM60.4826 67.6404C60.7272 67.0721 60.928 66.4857 61.083 65.8866C61.0971 65.8316 61.1001 65.7744 61.0918 65.7182C61.0835 65.662 61.064 65.6081 61.0346 65.5595C61.0051 65.5109 60.9663 65.4687 60.9204 65.4354C60.8744 65.402 60.8223 65.3782 60.767 65.3652C60.293 65.223 60.214 65.7286 59.977 66.3448C59.8409 66.6513 59.7299 66.9684 59.6452 67.2928C59.6447 67.3901 59.6731 67.4853 59.7269 67.5663C59.7807 67.6473 59.8574 67.7105 59.9472 67.7477C60.037 67.785 60.1359 67.7947 60.2312 67.7756C60.3266 67.7565 60.4141 67.7095 60.4826 67.6404ZM65.744 69.1256C65.8339 69.1652 65.934 69.1757 66.0302 69.1559C66.1264 69.1361 66.2141 69.0869 66.2812 69.015C66.5235 68.4457 66.7241 67.8596 66.8816 67.2612C66.8982 67.2073 66.9036 67.1505 66.8973 67.0944C66.891 67.0383 66.8732 66.9841 66.845 66.9352C66.8169 66.8862 66.7789 66.8436 66.7336 66.81C66.6882 66.7764 66.6364 66.7525 66.5814 66.7398C66.0916 66.5976 65.9968 67.1664 65.7914 67.7036C65.586 68.2408 65.191 68.9044 65.744 69.1256ZM58.16 72.3646C58.7271 72.6486 59.3768 72.7214 59.9928 72.57C60.3878 72.3962 60.1192 71.7958 59.74 71.9222C59.3225 71.8937 58.9221 71.7456 58.5866 71.4956C58.3728 71.3554 58.1888 71.1744 58.0451 70.9629C57.9014 70.7514 57.8008 70.5137 57.7492 70.2632C57.6386 69.5996 56.5958 69.8524 56.7538 70.516C56.8305 70.9115 56.9972 71.2839 57.2411 71.6045C57.4849 71.9251 57.7994 72.1852 58.16 72.3646ZM170.482 245.327C170.482 244.908 170.316 244.506 170.019 244.21C169.723 243.914 169.321 243.747 168.902 243.747C168.483 243.747 168.081 243.914 167.785 244.21C167.489 244.506 167.322 244.908 167.322 245.327C167.322 245.746 167.489 246.148 167.785 246.444C168.081 246.741 168.483 246.907 168.902 246.907C169.321 246.907 169.723 246.741 170.019 246.444C170.316 246.148 170.482 245.746 170.482 245.327ZM170.451 260.89C170.7 260.914 170.952 260.885 171.19 260.805C171.428 260.726 171.646 260.598 171.832 260.429C172.017 260.26 172.165 260.054 172.267 259.825C172.368 259.596 172.42 259.348 172.42 259.097C172.42 258.846 172.368 258.598 172.267 258.369C172.165 258.14 172.017 257.934 171.832 257.765C171.646 257.596 171.428 257.468 171.19 257.389C170.952 257.309 170.7 257.28 170.451 257.304C170.201 257.28 169.949 257.309 169.711 257.389C169.473 257.468 169.255 257.596 169.069 257.765C168.884 257.934 168.736 258.14 168.635 258.369C168.533 258.598 168.481 258.846 168.481 259.097C168.481 259.348 168.533 259.596 168.635 259.825C168.736 260.054 168.884 260.26 169.069 260.429C169.255 260.598 169.473 260.726 169.711 260.805C169.949 260.885 170.201 260.914 170.451 260.89ZM170.909 273.688C170.478 273.729 170.079 273.929 169.788 274.249C169.497 274.569 169.336 274.986 169.336 275.418C169.336 275.851 169.497 276.267 169.788 276.587C170.079 276.907 170.478 277.107 170.909 277.148C171.339 277.107 171.739 276.907 172.029 276.587C172.32 276.267 172.481 275.851 172.481 275.418C172.481 274.986 172.32 274.569 172.029 274.249C171.739 273.929 171.339 273.729 170.909 273.688ZM161.318 205.069C162.097 209.194 162.624 213.362 162.898 217.551C162.898 217.698 162.956 217.838 163.06 217.942C163.164 218.046 163.305 218.104 163.451 218.104C163.598 218.104 163.738 218.046 163.842 217.942C163.946 217.838 164.004 217.698 164.004 217.551C163.694 213.292 163.044 209.066 162.061 204.911C162.02 204.835 161.957 204.775 161.879 204.739C161.801 204.702 161.714 204.692 161.63 204.71C161.546 204.728 161.47 204.773 161.414 204.837C161.358 204.902 161.324 204.983 161.318 205.069ZM164.32 251.331C164.32 251.222 164.277 251.118 164.2 251.041C164.123 250.964 164.018 250.92 163.909 250.92C163.8 250.92 163.696 250.964 163.619 251.041C163.542 251.118 163.499 251.222 163.499 251.331C163.341 262.154 163.151 288.019 163.246 290.831C163.267 290.956 163.332 291.069 163.429 291.15C163.526 291.232 163.649 291.277 163.775 291.277C163.902 291.277 164.024 291.232 164.121 291.15C164.218 291.069 164.283 290.956 164.304 290.831C164.526 285.728 164.32 253.859 164.32 251.331ZM206.727 142.659C206.744 142.703 206.775 142.741 206.815 142.766C206.854 142.792 206.901 142.804 206.949 142.801C211.12 140.647 214.876 137.769 218.04 134.301C218.085 134.254 218.109 134.191 218.109 134.127C218.109 134.062 218.085 134 218.04 133.953C214.422 131.393 204.199 127.143 204.184 128.344C204.103 133.235 204.967 138.095 206.727 142.659ZM90.4078 165.585C91.6879 165.638 92.9524 165.288 94.0236 164.585C95.0949 163.882 95.919 162.862 96.3802 161.666C96.8068 160.323 96.6488 160.086 95.3532 152.265C96.2979 153.023 97.29 153.72 98.3236 154.351C98.6487 154.476 99.0088 154.476 99.3341 154.351C99.6594 154.226 99.9266 153.985 100.084 153.674C100.241 153.363 100.278 153.005 100.186 152.669C100.094 152.332 99.8811 152.042 99.5876 151.854C96.9445 150.48 94.9144 148.162 93.8996 145.361C93.7574 144.871 91.9088 144.713 91.2136 145.898C91.2136 146.04 93.631 159.47 93.6626 159.612C93.7656 160.017 93.7656 160.44 93.6626 160.845C93.4278 161.352 93.0686 161.792 92.6184 162.123C92.1681 162.455 91.6414 162.667 91.0872 162.741C90.6453 162.828 90.1905 162.827 89.7492 162.736C89.3079 162.646 88.8889 162.469 88.5166 162.216C88.1443 161.962 87.8261 161.637 87.5806 161.26C87.3351 160.882 87.1671 160.46 87.0864 160.016C87.0058 159.573 87.014 159.119 87.1107 158.679C87.2074 158.239 87.3907 157.823 87.6498 157.454C87.9088 157.086 88.2386 156.772 88.6199 156.533C89.0011 156.293 89.4263 156.131 89.8706 156.057C90.2414 155.992 90.5713 155.783 90.7876 155.475C91.0039 155.166 91.0889 154.785 91.024 154.414C90.959 154.043 90.7494 153.713 90.4412 153.497C90.1331 153.281 89.7516 153.196 89.3808 153.261C88.2846 153.444 87.2561 153.912 86.3989 154.62C85.5417 155.327 84.8863 156.248 84.4986 157.29C84.1427 158.231 84.0242 159.246 84.1536 160.244C84.2829 161.243 84.6561 162.194 85.2402 163.014C85.8242 163.834 86.6012 164.497 87.5025 164.945C88.4037 165.394 89.4015 165.613 90.4078 165.585Z" fill="#0E3A99"/>
<path d="M107.914 154.634C107.748 151.442 106.63 148.372 104.704 145.821C102.778 143.27 100.132 141.354 97.1069 140.32C83.4715 135.706 70.9263 151.68 79.0001 163.798C80.9049 166.636 83.6781 168.779 86.9039 169.907C90.1297 171.034 93.6342 171.086 96.8918 170.053C100.149 169.021 102.984 166.96 104.972 164.18C106.959 161.4 107.991 158.051 107.914 154.634ZM82.6341 144.522C92.3195 135.611 106.54 142.942 106.919 154.65C106.883 157.633 106.023 160.547 104.433 163.07C102.844 165.594 100.587 167.629 97.9128 168.949C89.0963 172.789 78.4471 166.168 77.7045 156.846C77.5096 154.555 77.849 152.249 78.6962 150.11C79.5433 147.972 80.8751 146.059 82.5867 144.522H82.6341ZM195.92 142.358C197.292 144.459 199.15 146.199 201.335 147.432C203.521 148.665 205.971 149.355 208.478 149.443C210.986 149.531 213.479 149.015 215.745 147.939C218.012 146.862 219.987 145.257 221.504 143.258C223.02 141.258 224.034 138.924 224.46 136.451C224.885 133.978 224.711 131.439 223.95 129.048C223.189 126.656 221.865 124.483 220.088 122.711C218.312 120.938 216.135 119.619 213.743 118.863C199.554 114.471 188.147 130.998 195.92 142.358ZM199.554 123.098C209.429 113.997 223.46 121.881 223.823 133.225C223.791 136.201 222.94 139.11 221.362 141.632C219.784 144.155 217.541 146.194 214.88 147.524C206.08 151.364 195.415 144.759 194.656 135.422C194.465 133.124 194.813 130.814 195.671 128.675C196.53 126.535 197.876 124.626 199.602 123.098H199.554ZM98.4815 67.5606C86.8054 42.9126 56.8801 32.4056 32.7377 48.8376C1.45375 70.215 8.84815 115.34 44.0189 127.474C78.3681 139.672 115.862 104.28 98.4815 67.5606ZM76.4721 124.283C73.6049 125.687 70.582 126.747 67.4661 127.443C67.6715 125.483 67.9243 120.427 68.0191 118.057C69.5043 120.427 72.1903 122.797 75.5241 122.323C78.4313 121.865 81.0067 119.163 83.4241 114.423C85.7909 109.243 87.122 103.651 87.3425 97.9598C87.6 97.3011 87.7648 96.6099 87.8323 95.9058C88.6353 94.0559 89.5699 92.2659 90.6289 90.5496C91.1977 90.0539 91.6925 89.4793 92.0983 88.8432C92.5399 87.6184 92.6383 86.2963 92.3827 85.0196C92.3332 83.7393 91.8609 82.5114 91.0397 81.5278C91.6875 80.2164 93.4887 74.2282 93.7889 73.059C93.8147 72.9337 93.7936 72.8033 93.7295 72.6926C93.6654 72.5819 93.5628 72.4986 93.4413 72.4586C90.2738 71.9757 87.0696 71.7747 83.8665 71.8582C83.756 71.6528 78.0679 87.8952 77.5465 89.2382C77.5225 89.3118 77.5136 89.3896 77.5207 89.4667C77.5277 89.5439 77.5504 89.6187 77.5874 89.6868C77.6243 89.7548 77.6748 89.8146 77.7357 89.8625C77.7966 89.9103 77.8667 89.9452 77.9416 89.965C79.5118 90.2086 81.0941 90.3669 82.6815 90.439C82.6815 91.1184 82.3813 92.9986 82.2707 93.599C81.8202 94.171 81.4532 94.8041 81.1805 95.4792C79.2188 97.1854 77.8381 99.4609 77.2305 101.989C74.4339 89.7122 72.4905 84.435 61.4305 78.2888C60.8775 77.9886 60.2139 77.7674 59.6135 77.3724C67.2607 79.2052 68.1139 80.0742 68.3983 79.695C77.0567 67.4974 73.0277 53.546 64.1481 47.937C55.8373 41.933 47.6371 47.6052 44.6509 57.101C42.4389 64.5744 46.2309 71.1156 48.1901 73.8332C46.3889 74.007 45.7727 74.2124 44.3349 74.3704C32.1689 75.6818 22.3097 90.2652 17.7909 101.657C4.31355 70.7364 33.6699 35.534 67.7979 43.6868C106.808 54.3834 113.902 106.176 76.4721 124.283ZM28.1399 116.383C29.3407 114.518 32.3427 109.336 33.0379 108.119C41.8227 114.882 58.3179 115.766 66.9763 109.999C66.9763 110.268 66.5813 125.499 66.5813 127.664C59.7379 128.916 52.6963 128.548 46.0207 126.589C39.3451 124.63 33.2213 121.135 28.1399 116.383ZM77.7045 105.512C77.676 105.019 77.618 104.529 77.5307 104.043C77.6729 103.6 77.7677 103.205 77.91 102.684C78.937 104.39 82.3339 107.424 83.7401 107.598C83.8109 107.603 83.8815 107.585 83.9405 107.545C83.9995 107.506 84.0435 107.448 84.0654 107.38C84.0873 107.313 84.0859 107.24 84.0612 107.173C84.0366 107.107 83.9903 107.05 83.9297 107.013C81.5905 105.559 79.7114 103.472 78.5103 100.993C78.8742 100.002 79.409 99.0824 80.0903 98.2758C81.3288 100.22 83.0705 101.792 85.1305 102.826C85.1669 102.836 85.2047 102.838 85.2418 102.832C85.2789 102.827 85.3146 102.815 85.3469 102.796C85.3792 102.776 85.4074 102.751 85.4299 102.721C85.4524 102.691 85.4688 102.657 85.4781 102.621C85.4875 102.585 85.4896 102.547 85.4843 102.51C85.479 102.472 85.4665 102.437 85.4474 102.404C85.4284 102.372 85.4031 102.344 85.3731 102.321C85.3432 102.299 85.3091 102.283 85.2728 102.273C83.4248 101.003 81.9035 99.3139 80.8329 97.3436C81.0383 97.0908 81.2595 96.838 81.4807 96.601C82.7498 97.85 84.4413 98.5773 86.2207 98.6392C85.9413 103.375 84.9671 108.044 83.3293 112.496C82.0346 115.626 80.0082 118.4 77.4201 120.585C79.5975 116.359 80.0943 111.465 78.8105 106.887C78.7789 106.779 78.7119 106.684 78.6203 106.618C78.5287 106.552 78.4177 106.519 78.3049 106.523C76.9619 106.523 78.8421 112.022 69.3779 118.105C68.889 117.405 68.4508 116.671 68.0665 115.909C68.1614 110.537 67.9401 105.18 67.7189 99.998C67.7189 99.9016 67.6807 99.8092 67.6125 99.7411C67.5444 99.6729 67.4519 99.6346 67.3555 99.6346C67.2592 99.6346 67.1667 99.6729 67.0986 99.7411C67.0304 99.8092 66.9921 99.9016 66.9921 99.998C67.0869 102.747 66.9921 105.465 66.9921 108.72C61.6833 112.053 55.6003 113.207 47.8267 112.338C42.6557 112.065 37.6736 110.304 33.4803 107.266C34.0333 106.255 36.3401 101.831 36.9879 100.646C37.0192 100.592 37.0353 100.531 37.0347 100.468C37.0341 100.406 37.0167 100.345 36.9844 100.292C36.9521 100.238 36.906 100.195 36.8511 100.165C36.7961 100.136 36.7342 100.122 36.6719 100.124C36.2927 100.124 36.6719 100.03 33.5119 105.449C28.5278 103.497 24.5028 99.6757 22.2939 94.7998C24.8513 89.9179 28.2048 85.4964 32.2163 81.7174C34.277 84.5783 36.8916 86.9958 39.905 88.8263C42.9184 90.6567 46.269 91.8628 49.7576 92.3727C53.2463 92.8827 56.8019 92.6862 60.2132 91.7949C63.6244 90.9035 66.8217 89.3356 69.6149 87.1842C69.6685 87.1271 69.7002 87.0529 69.7043 86.9747C69.7084 86.8965 69.6847 86.8193 69.6374 86.7569C69.5901 86.6945 69.5223 86.6508 69.4459 86.6336C69.3695 86.6164 69.2894 86.6267 69.2199 86.6628C66.927 88.2385 64.4352 89.503 61.8097 90.4232C56.6307 92.0637 51.0665 92.0307 45.9073 90.3289C40.7481 88.6271 36.2562 85.3431 33.0695 80.9432C34.5828 79.7153 36.2251 78.6558 37.9675 77.7832C43.9557 91.2606 58.7287 92.2244 65.8703 82.5232C69.5675 85.3988 70.7051 85.7622 73.6597 92.9038C66.8815 98.813 60.7037 101.752 54.7945 101.689C49.8842 101.723 45.0302 100.641 40.599 98.5256C36.1677 96.4099 32.2749 93.3152 29.2143 89.4752C28.9615 89.1276 28.3927 89.4752 28.6455 89.8544C33.3855 97.075 42.3757 101.815 53.3725 102.858C60.8143 103.585 68.7143 99.3344 74.0231 93.9308C74.8447 96.6484 75.8401 100.646 75.9507 101.12C75.4609 102.7 70.1679 107.614 69.3305 107.803C68.8407 107.914 69.0935 108.672 69.5359 108.483C72.0825 107.009 74.3762 105.137 76.3299 102.937C76.5037 103.758 76.8197 105.228 76.8671 105.591C76.9145 105.955 77.7361 106.018 77.7045 105.512ZM87.1845 81.6858C86.9887 81.6307 86.7824 81.6243 86.5836 81.6671C86.3847 81.71 86.1993 81.8008 86.0436 81.9316C85.8878 82.0624 85.7664 82.2294 85.6899 82.4178C85.6134 82.6063 85.5841 82.8106 85.6045 83.013C83.9139 83.3764 84.0245 84.593 85.0041 85.383C85.9739 85.9951 86.976 86.5541 88.0061 87.0578C87.6427 87.9268 87.3583 88.6378 86.9791 89.4752C85.3991 89.4752 80.4853 89.175 78.7789 89.0328C79.4109 87.0578 82.7447 77.878 84.5775 72.9168C86.1575 72.9958 91.1029 73.1222 92.6987 73.375C92.3195 74.955 90.7079 79.5528 90.2497 80.9906C90.0058 80.8297 89.7318 80.7198 89.4442 80.6676C89.1567 80.6154 88.8615 80.622 88.5766 80.687C88.2916 80.7519 88.0228 80.8739 87.7863 81.0456C87.5497 81.2173 87.3504 81.4351 87.2003 81.6858H87.1845ZM87.8797 90.2336C88.1483 89.3804 88.4801 88.5588 88.9225 87.4844C88.9929 87.4968 89.0654 87.4861 89.1292 87.454C89.193 87.4218 89.2448 87.3699 89.2767 87.306C89.3087 87.2421 89.3192 87.1696 89.3066 87.0993C89.294 87.0289 89.2591 86.9645 89.2069 86.9156C88.8119 86.5522 85.1463 84.6088 85.2885 84.2296C85.4307 83.8504 86.3471 84.119 86.8685 84.4192C87.8969 84.8427 88.9526 85.1964 90.0285 85.4778C90.0976 85.4853 90.1673 85.4698 90.2267 85.4337C90.2861 85.3977 90.3319 85.343 90.3571 85.2782C90.3823 85.2134 90.3855 85.1421 90.3661 85.0754C90.3466 85.0087 90.3058 84.9502 90.2497 84.909C89.0159 84.4612 87.8125 83.9334 86.6473 83.329C86.4103 83.1078 86.2997 82.5074 86.6473 82.5232C87.8082 82.7998 88.8895 83.3405 89.8073 84.1032C89.8437 84.1375 89.8864 84.1642 89.933 84.1819C89.9797 84.1997 90.0293 84.2081 90.0792 84.2066C90.1291 84.2051 90.1782 84.1938 90.2237 84.1734C90.2693 84.153 90.3103 84.1237 90.3445 84.0874C90.3788 84.0511 90.4055 84.0084 90.4233 83.9618C90.441 83.9151 90.4494 83.8654 90.4479 83.8156C90.4464 83.7657 90.4352 83.7166 90.4147 83.671C90.3943 83.6255 90.3651 83.5845 90.3287 83.5502C89.7351 83.0816 89.1066 82.659 88.4485 82.2862C87.6585 81.828 88.2273 81.2592 89.0173 81.3698C90.0759 81.5278 91.4347 82.9498 91.2925 85.8728C91.4242 86.6579 91.3221 87.4644 90.999 88.192C90.676 88.9196 90.1462 89.5361 89.4755 89.965C88.4574 91.5807 87.595 93.2896 86.9001 95.0684C86.2054 95.2482 85.4737 95.2263 84.7909 95.0052C84.1082 94.7842 83.5025 94.3731 83.0449 93.8202C83.1555 93.2672 83.4874 91.3712 83.5821 90.6602C87.1055 90.7708 87.7217 90.755 87.8955 90.2336H87.8797ZM78.1944 109.367C78.7384 113.399 78.073 117.501 76.2825 121.154C75.1282 121.485 73.8995 121.448 72.767 121.049C71.6344 120.65 70.6543 119.908 69.9625 118.926C73.8127 116.891 76.7526 113.477 78.1944 109.367ZM49.1223 75.2552C49.1505 75.2885 49.1872 75.3134 49.2286 75.3272C49.2699 75.3409 49.3142 75.343 49.3567 75.3332C49.3991 75.3234 49.4381 75.3021 49.4692 75.2716C49.5003 75.2411 49.5225 75.2027 49.5331 75.1604C51.9189 65.7752 51.8557 66.3598 51.6345 66.2334C48.9801 64.7798 49.8175 61.9516 50.8919 61.6198C51.4291 61.446 52.1401 61.7936 52.8511 62.5836C53.3155 63.0201 53.6677 63.5621 53.8781 64.1636C55.4581 68.5876 64.2113 62.7574 68.0033 59.9608C68.2665 59.7421 68.5777 59.5888 68.9115 59.5136C69.2453 59.4384 69.5922 59.4434 69.9237 59.5282C70.2552 59.613 70.5618 59.7752 70.8185 60.0015C71.0752 60.2277 71.2746 60.5116 71.4003 60.8298C71.7637 61.525 71.1001 62.1096 70.7051 61.3512C69.8835 59.9608 68.4457 60.735 68.4773 61.1142C68.7933 65.0326 68.0665 70.5942 65.0171 73.3118C61.9678 76.0294 58.4285 74.6232 58.1125 74.8918C57.7965 75.1604 57.9703 75.4132 57.9703 75.7134C57.829 76.0488 57.7663 76.412 57.787 76.7753C57.8076 77.1386 57.9111 77.4923 58.0895 77.8095C58.2679 78.1267 58.5165 78.3988 58.8163 78.6051C59.116 78.8114 59.459 78.9464 59.8189 78.9998C61.1101 79.4878 62.3402 80.124 63.4845 80.8958C57.8597 89.5858 45.5673 88.306 40.8589 76.5982C43.4911 75.6995 46.2345 75.1679 49.0117 75.0182L49.1223 75.2552ZM21.7725 95.7952C22.7934 98.2348 24.3173 100.432 26.2449 102.242C28.1725 104.053 30.4603 105.436 32.9589 106.302C32.7693 106.602 28.3611 113.807 27.3183 115.577C23.482 111.891 20.3639 107.525 18.1227 102.7C19.6869 99.8874 20.5401 98.181 21.7725 95.811V95.7952ZM297.925 67.7976C289.03 39.3576 256.971 26.291 232.071 41.4274C204.01 58.4598 202.335 96.3798 229.1 115.529C264.271 140.62 310.154 105.986 297.925 67.7976ZM249.893 110.9C255.123 117.836 260.368 118.373 263.876 117.568C270.417 116.082 276.153 108.735 277.827 99.682C277.85 99.5752 277.83 99.4635 277.771 99.3717C277.712 99.2798 277.618 99.2153 277.511 99.1922C277.404 99.1692 277.293 99.1895 277.201 99.2488C277.109 99.3081 277.045 99.4014 277.022 99.5082C276.278 103.374 274.656 107.017 272.282 110.157C262.991 122.26 253.322 116.351 245.911 102.953C243.503 99.1111 242.151 94.7018 241.993 90.1704C245.753 88.4008 245.674 88.306 246.117 88.6852C250.509 92.4614 258.488 101.467 259.594 102.684C259.614 102.789 259.67 102.884 259.752 102.952C259.834 103.02 259.938 103.058 260.044 103.058C260.151 103.058 260.255 103.02 260.337 102.952C260.419 102.884 260.475 102.789 260.495 102.684C262.264 95.5424 263.655 88.1322 268.916 83.0288C270.87 82.5792 272.848 82.2468 274.841 82.0334C281.841 90.8814 280.845 102.684 280.814 113.886C276.121 117.469 270.731 120.03 264.989 121.404C259.247 122.779 253.282 122.936 247.476 121.865C247.817 118.123 248.629 114.439 249.893 110.9ZM276.184 81.8912C277.037 81.8912 276.958 80.5008 276.184 80.6114C272.886 80.8865 269.648 81.6534 266.578 82.8866C266.151 83.0604 265.661 83.1552 265.819 83.5818C265.977 84.0084 266.325 83.6924 267.51 83.3922C262.865 88.306 261.111 95.2264 259.894 101.452C259.025 100.393 256.877 97.944 256.324 97.312C261.19 86.5838 260.921 86.252 263.781 84.0874C264.887 83.2026 269.39 79.9478 273.119 77.6094C275.11 76.3454 276.532 75.4606 279.85 80.0584C282.931 84.3402 283.01 84.4034 281.035 93.8044C280.441 89.4754 278.731 85.3753 276.074 81.907L276.184 81.8912ZM241.424 72.585C241.709 72.585 241.851 72.8062 242.072 73.138C247.286 81.038 246.891 80.1374 246.891 80.2954C246.891 81.0538 247.918 82.1914 248.945 83.1552C248.108 83.4712 246.543 84.1032 245.611 84.4824C245.611 81.5752 243.557 81.5752 243.004 82.7918C242.025 81.354 239.844 78.51 239.402 77.957C239.282 77.7869 239.12 77.6508 238.931 77.5621C238.743 77.4735 238.535 77.4353 238.327 77.4514C237.585 76.5034 235.91 74.2914 235.262 73.3276C235.42 73.296 240.919 72.6798 241.408 72.585H241.424ZM252.168 87.5634C251.931 89.491 248.913 87.3422 250.083 86.2678C250.299 86.6337 250.599 86.9423 250.96 87.1678C251.32 87.3932 251.729 87.5289 252.152 87.5634H252.168ZM251.994 86.568C251.347 86.4574 250.035 84.988 250.414 84.6562C250.794 84.3244 252.421 86.3152 252.389 86.5522C252.257 86.5969 252.114 86.6024 251.979 86.568H251.994ZM255.613 96.601C254.238 95.1474 247.997 88.701 247.839 88.5746C247.61 88.2324 247.314 87.94 246.969 87.7146C246.624 87.4893 246.238 87.3358 245.832 87.2632C245.625 86.7253 245.544 86.1469 245.595 85.5726L249.672 83.8346C250.051 84.1664 249.672 83.8346 249.482 84.5614C249.392 84.9005 249.431 85.2612 249.593 85.5726C248.013 86.7418 249.593 89.4594 251.678 89.254C252.298 89.6786 252.834 90.2143 253.258 90.834C253.726 92.4468 254.389 93.9963 255.233 95.4476C255.755 96.3798 255.723 96.2692 255.597 96.601H255.613ZM254.27 90.9604C254.27 90.4548 256.087 88.5588 256.371 88.3218C257.218 88.568 258.042 88.8851 258.836 89.2698C258.378 90.3126 256.908 93.6464 256.181 95.337C255.388 93.9491 254.742 92.4823 254.254 90.9604H254.27ZM253.622 89.9492C253.316 89.5466 252.954 89.1901 252.547 88.8906C252.742 88.6803 252.888 88.4298 252.976 88.1568C253.063 87.8838 253.089 87.5949 253.053 87.3106C253.144 87.2502 253.22 87.1709 253.277 87.0782C253.335 86.9855 253.371 86.8815 253.385 86.7734C253.511 86.0308 252.674 85.4146 252.121 84.8932C250.484 83.609 249.028 82.1104 247.792 80.4376C249.047 81.0666 250.247 81.8013 251.378 82.6338C253.274 84.04 255.707 85.3672 255.518 87.7056C254.82 88.4 254.181 89.1504 253.606 89.9492H253.622ZM238.58 78.3994C240.186 80.2134 241.659 82.1407 242.988 84.1664C243.034 84.2369 243.1 84.2922 243.177 84.3254C243.255 84.3586 243.34 84.3682 243.423 84.353C243.506 84.3378 243.582 84.2985 243.642 84.24C243.703 84.1815 243.745 84.1064 243.763 84.0242C243.763 83.5818 243.968 82.7918 244.379 82.9656C245.248 84.1506 244.379 85.9992 244.963 87.4686C240.729 89.333 244.189 88.859 241.582 85.8886C239.165 83.3448 238.217 79.2052 238.58 78.3994ZM254.87 76.8194C255.447 74.7523 255.447 72.5666 254.87 70.4994C254.635 69.5783 254.493 68.6363 254.443 67.687C255.392 67.7883 256.351 67.7457 257.287 67.5606C260.052 67.1024 261.474 65.6172 262.154 66.0754C262.596 66.3756 262.675 67.3078 262.391 68.793C262.384 68.8412 262.393 68.8901 262.416 68.9332C262.438 68.9763 262.473 69.0114 262.516 69.0338C262.56 69.0562 262.608 69.0649 262.657 69.0585C262.705 69.0522 262.75 69.0312 262.786 68.9984C263.387 68.5057 264.141 68.2376 264.919 68.24C267.02 68.4138 266.941 71.4 264.919 72.6798C264.875 72.7144 264.845 72.7632 264.834 72.8177C264.823 72.8721 264.831 72.9288 264.857 72.9778C264.884 73.0267 264.927 73.0649 264.978 73.0855C265.03 73.1061 265.087 73.1079 265.14 73.0906C265.899 72.8301 266.712 72.7732 267.5 72.9257C268.287 73.0782 269.021 73.4347 269.627 73.9596C269.958 75.2824 270.408 76.5727 270.97 77.8148C268.774 79.3158 265.835 81.3698 263.734 82.9972C261.838 79.0156 259.484 81.8438 257.856 78.6522C256.213 75.9188 255.17 76.8668 254.791 76.772L254.87 76.8194ZM281.351 95.7794C282.489 92.3099 283.143 88.6997 283.294 85.0512C283.07 83.2949 282.358 81.6365 281.24 80.2638C276.753 73.7858 274.92 74.8602 271.46 77.1986C271.144 76.2348 270.449 74.2282 270.322 73.691C270.528 73.4856 271.065 72.9642 271.223 72.8536C271.807 72.0334 272.26 71.1272 272.566 70.1676C272.97 68.8271 273.136 67.4259 273.056 66.028C273.135 64.703 272.925 63.3767 272.44 62.1412C271.434 60.3845 269.846 59.0353 267.949 58.3281C266.053 57.621 263.969 57.6005 262.059 58.2702C259.104 57.2906 255.297 56.2794 253.859 56.8956C252.715 57.1713 251.691 57.8063 250.935 58.7074C250.179 59.6085 249.732 60.7281 249.66 61.9019C249.587 63.0758 249.893 64.2419 250.532 65.2291C251.171 66.2163 252.11 66.9726 253.211 67.3868C253.163 68.6068 253.302 69.8269 253.622 71.005C254.157 72.6634 254.201 74.4414 253.748 76.1242C253.464 77.3882 253.875 77.957 255.328 77.7042C257.035 77.8306 256.102 80.8642 259.973 81.433C260.906 81.591 261.648 81.7332 262.612 83.5186C261 84.8069 259.789 86.5278 259.12 88.4798C258.261 87.9732 257.35 87.56 256.403 87.2474C256.298 86.4596 256.023 85.704 255.598 85.0329C255.172 84.3617 254.606 83.7911 253.938 83.3606C252.465 82.1312 250.878 81.0465 249.198 80.1216C248.866 79.9478 248.171 79.4106 247.618 79.5212C242.119 71.1472 242.688 71.5106 240.966 71.5106C238.741 71.596 236.53 71.8922 234.362 72.3954C234.284 72.4247 234.213 72.4711 234.156 72.5313C234.098 72.5915 234.055 72.6639 234.03 72.743C233.935 73.1222 234.03 72.901 236.242 76.061C238.296 78.9366 237.553 77.5304 237.68 79.0788C237.96 82.0641 239.176 84.8845 241.156 87.1368C241.532 87.7159 241.684 88.4128 241.582 89.096L241.377 89.1908C240.84 89.4594 241.519 94.8472 241.898 96.1112C243.634 101.077 246.134 105.741 249.308 109.936C247.753 113.67 246.798 117.627 246.48 121.66C232.371 118.5 220.315 108.909 214.88 96.4588C209.445 84.0084 210.835 69.4092 219.083 55.7738C241.914 22.262 291.984 35.7236 297.925 74.876C300.105 89.7438 293.596 103.853 281.904 113.112C282.063 107.337 281.842 101.557 281.24 95.811L281.351 95.7794ZM275.126 127.853C275.263 130.388 275.703 132.897 276.437 135.327C276.487 135.478 276.596 135.602 276.738 135.673C276.88 135.744 277.044 135.756 277.195 135.706C278.396 135.358 276.627 133.699 276.105 127.806C276.058 127.19 275.078 127.221 275.126 127.853ZM279.96 146.734C279.929 146.602 279.846 146.488 279.731 146.417C279.615 146.346 279.476 146.324 279.344 146.355C279.212 146.387 279.098 146.469 279.027 146.585C278.956 146.7 278.934 146.839 278.965 146.971C280.987 157.241 280.719 158.237 281.746 158.031C282.773 157.826 282.046 156.846 279.96 146.734ZM283.673 171.161C282.804 171.398 283.958 171.525 284.732 181.115C284.732 181.984 286.154 181.937 286.059 181.115C285.661 177.873 285.033 174.662 284.179 171.509C284.174 171.45 284.157 171.393 284.127 171.342C284.098 171.292 284.057 171.248 284.009 171.215C283.961 171.181 283.905 171.159 283.847 171.15C283.789 171.141 283.73 171.145 283.673 171.161ZM243.573 145.028C245.26 140.022 246.668 134.927 247.792 129.765C247.815 129.646 247.793 129.523 247.728 129.42C247.664 129.318 247.563 129.244 247.445 129.213C247.328 129.183 247.204 129.199 247.098 129.257C246.992 129.316 246.912 129.413 246.875 129.528C245.611 134.6 243.936 139.514 242.372 144.665C242.346 144.817 242.376 144.973 242.457 145.104C242.538 145.236 242.664 145.333 242.812 145.378C242.959 145.422 243.118 145.411 243.259 145.347C243.399 145.283 243.511 145.169 243.573 145.028ZM237.158 165.9C238.043 165.9 237.885 164.825 240.397 155.424C240.431 155.311 240.418 155.189 240.362 155.086C240.305 154.982 240.21 154.905 240.097 154.871C239.984 154.838 239.862 154.851 239.758 154.907C239.655 154.963 239.577 155.058 239.544 155.172C239.054 156.752 236.905 163.403 236.51 165.078C236.486 165.176 236.485 165.278 236.506 165.377C236.528 165.475 236.571 165.568 236.634 165.647C236.696 165.726 236.776 165.79 236.867 165.834C236.958 165.878 237.057 165.9 237.158 165.9ZM229.985 186.44C230.538 186.44 230.506 186.029 230.965 184.196C231.581 181.7 232.545 177.876 232.924 176.802C233.161 176.17 232.197 175.885 231.96 176.486C230.895 179.581 230.055 182.749 229.448 185.966C229.46 186.099 229.522 186.222 229.622 186.31C229.722 186.398 229.852 186.444 229.985 186.44ZM224.771 199.886C223.315 202.706 222.191 205.686 221.421 208.765C221.379 208.924 221.403 209.094 221.485 209.236C221.568 209.378 221.705 209.482 221.864 209.524C222.023 209.566 222.192 209.542 222.335 209.46C222.477 209.377 222.58 209.24 222.622 209.081C225.261 200.123 226.114 200.044 225.34 199.601C225.284 199.579 225.224 199.569 225.164 199.572C225.104 199.574 225.045 199.589 224.992 199.616C224.938 199.643 224.891 199.681 224.853 199.727C224.815 199.774 224.787 199.828 224.771 199.886ZM208.26 153.955C208.418 155.187 208.987 160.275 209.176 161.681C209.188 161.768 209.216 161.852 209.26 161.929C209.304 162.005 209.362 162.071 209.432 162.125C209.502 162.179 209.581 162.218 209.666 162.241C209.751 162.263 209.84 162.269 209.927 162.258C210.014 162.247 210.098 162.218 210.174 162.174C210.25 162.13 210.317 162.072 210.371 162.002C210.424 161.932 210.463 161.853 210.486 161.768C210.509 161.683 210.515 161.595 210.504 161.507C210.298 160.149 209.413 155.045 209.224 153.829C209.129 153.26 208.181 153.37 208.26 153.955ZM210.741 176.565C210.914 177.56 211.562 181.858 211.768 182.995C211.926 183.849 213.19 183.533 213.032 182.695C212.652 180.594 212.147 178.477 211.752 176.375C211.625 175.664 210.63 175.917 210.741 176.565ZM213.3 198.543C213.371 201.195 213.656 203.837 214.153 206.443C214.343 207.312 215.639 206.964 215.481 206.111C214.94 203.6 214.529 201.064 214.248 198.511C214.106 197.926 213.19 197.911 213.3 198.543ZM172.22 67.055C171.92 66.4862 171.083 66.9602 171.351 67.529C176.486 78.0676 176.091 78.1624 176.834 78.1624C176.956 78.1613 177.076 78.1292 177.183 78.0692C177.29 78.0092 177.38 77.9232 177.444 77.8192C177.509 77.7151 177.546 77.5965 177.553 77.4742C177.559 77.3519 177.535 77.2299 177.482 77.1196C175.744 73.7226 173.911 70.4204 172.22 67.055ZM182.016 87.6582C181.779 87.121 180.973 87.5476 181.21 88.0848C182.79 91.6082 184.102 95.2264 185.713 98.7656C186.061 99.5556 187.214 98.9236 186.867 98.1494C185.303 94.5154 183.454 90.8656 182.016 87.6582ZM195.92 119.843C196.016 119.848 196.111 119.83 196.198 119.789C196.285 119.749 196.361 119.688 196.419 119.611C196.476 119.535 196.514 119.445 196.529 119.351C196.544 119.256 196.536 119.159 196.505 119.069C195.952 117.489 193.218 111.69 192.523 110.126C192.239 109.478 191.291 109.984 191.559 110.631C195.32 119.258 195.257 119.843 195.92 119.843ZM224.708 114.107C224.123 115.103 221.437 118.753 220.71 119.685C220.656 119.754 220.617 119.834 220.593 119.919C220.57 120.004 220.564 120.092 220.575 120.179C220.586 120.267 220.614 120.351 220.658 120.427C220.701 120.504 220.759 120.571 220.829 120.625C220.898 120.679 220.978 120.719 221.063 120.742C221.148 120.765 221.236 120.771 221.323 120.76C221.411 120.749 221.495 120.721 221.571 120.678C221.648 120.634 221.715 120.576 221.769 120.506C223.129 118.609 224.365 116.624 225.466 114.566C225.527 114.465 225.545 114.344 225.517 114.23C225.489 114.116 225.417 114.018 225.316 113.957C225.215 113.897 225.095 113.878 224.981 113.906C224.867 113.935 224.769 114.007 224.708 114.107ZM197.105 54.5098C197.753 54.5098 198.101 53.5302 197.421 53.23C195.983 52.5822 189.932 50.5756 188.431 50.07C187.815 49.833 187.499 50.781 188.115 51.018C189.711 51.5868 196.584 54.5098 197.105 54.5098ZM202.588 56.8798C205.424 58.4229 208.403 59.6875 211.483 60.656C211.66 60.6865 211.842 60.6505 211.994 60.5549C212.146 60.4594 212.257 60.311 212.306 60.1384C212.355 59.9658 212.338 59.7812 212.259 59.62C212.18 59.4589 212.045 59.3327 211.878 59.2656C208.854 58.4447 205.913 57.3445 203.093 55.9792C202.493 55.7106 201.987 56.627 202.588 56.8798ZM127.174 55.9318C133.494 51.6816 135.39 52.6454 135.074 51.5236C135.056 51.459 135.025 51.3986 134.984 51.346C134.942 51.2934 134.89 51.2497 134.831 51.2173C134.772 51.1849 134.708 51.1646 134.641 51.1575C134.574 51.1505 134.507 51.1567 134.442 51.176C131.59 51.9263 128.875 53.1263 126.4 54.731C125.673 55.2998 126.4 56.4374 127.174 55.9318ZM112.812 61.2564C112.322 61.6514 112.717 62.2992 113.27 62.2992C113.46 62.2992 113.492 62.2992 115.23 61.4302C116.968 60.5612 118.958 59.629 119.701 59.4078C119.826 59.3587 119.928 59.2647 119.986 59.1444C120.045 59.024 120.057 58.8859 120.02 58.7573C119.982 58.6286 119.898 58.5187 119.783 58.449C119.669 58.3794 119.532 58.355 119.401 58.3808C117.114 59.1176 114.907 60.0809 112.812 61.2564Z" fill="#0E3A99"/>
<path d="M106.713 64.2427C105.892 64.7009 101.357 67.0867 100.867 67.4027C100.767 67.4728 100.69 67.5722 100.647 67.6874C100.605 67.8026 100.599 67.9281 100.63 68.0469C100.661 68.1657 100.727 68.2722 100.821 68.3519C100.914 68.4317 101.03 68.4809 101.152 68.4929C103.251 67.5013 105.288 66.3827 107.251 65.1433C107.339 65.0594 107.397 64.9477 107.414 64.8267C107.43 64.7057 107.405 64.5826 107.343 64.4777C107.28 64.3727 107.184 64.2923 107.069 64.2496C106.955 64.2069 106.829 64.2044 106.713 64.2427ZM93.2201 38.9943C95.3407 39.0085 97.4421 38.5932 99.3978 37.7734C101.353 36.9535 103.123 35.7461 104.599 34.2239C106.076 32.7017 107.229 30.8963 107.988 28.9165C108.748 26.9367 109.099 24.8236 109.02 22.7045C108.546 8.59506 90.2655 1.86426 81.0225 13.8723C72.6801 24.3161 80.7065 38.9943 93.2201 38.9943ZM83.7401 12.6399C93.4255 3.71286 107.646 11.0599 108.009 22.7677C107.98 25.7392 107.123 28.6438 105.535 31.1556C103.947 33.6674 101.691 35.687 99.0187 36.9877C90.1865 40.8429 79.5531 34.2227 78.7947 24.9007C78.6126 22.6135 78.9646 20.3154 79.8228 18.1876C80.6811 16.0598 82.0221 14.1606 83.7401 12.6399ZM128.359 25.6117C131.156 25.9119 133.968 25.9435 136.765 26.0699C136.891 26.0699 137.011 26.0199 137.1 25.931C137.189 25.8421 137.239 25.7216 137.239 25.5959C137.239 25.4702 137.189 25.3496 137.1 25.2607C137.011 25.1718 136.891 25.1219 136.765 25.1219C133.826 24.8533 132.025 24.4899 128.359 24.2529C127.522 24.2055 127.506 25.5169 128.359 25.6117ZM111.801 23.9369C113.081 24.0791 118.342 24.4425 119.701 24.6163C120.412 24.7269 120.696 23.6525 119.954 23.5261C117.279 23.1062 114.584 22.832 111.88 22.7045C111.799 22.6993 111.718 22.7101 111.641 22.7363C111.564 22.7624 111.494 22.8035 111.433 22.857C111.372 22.9106 111.322 22.9756 111.286 23.0484C111.251 23.1211 111.229 23.2002 111.224 23.2812C111.219 23.3621 111.23 23.4432 111.256 23.52C111.282 23.5967 111.323 23.6676 111.377 23.7285C111.43 23.7893 111.495 23.8391 111.568 23.8748C111.641 23.9106 111.72 23.9317 111.801 23.9369ZM48.9801 140.841C49.4383 137.934 49.5489 135.042 49.8965 132.151C49.9755 131.614 49.0907 131.487 49.0117 132.04C48.5693 134.884 47.8899 137.744 47.5581 140.636C47.5597 140.809 47.6234 140.977 47.7376 141.107C47.8519 141.238 48.0092 141.324 48.181 141.349C48.3529 141.373 48.5279 141.336 48.6745 141.243C48.8211 141.15 48.9295 141.007 48.9801 140.841ZM47.2737 148.662C45.6937 157.336 45.3303 158.395 46.4679 158.395C47.3211 158.395 47.1631 157.826 48.2375 148.788C48.3165 148.204 47.4001 148.077 47.2737 148.662ZM76.3299 163.103C73.9283 164.367 70.9421 165.837 70.0099 166.39C69.8804 166.466 69.78 166.584 69.7244 166.723C69.6688 166.863 69.6612 167.018 69.7028 167.162C69.7443 167.307 69.8327 167.434 69.9541 167.522C70.0755 167.611 70.2229 167.658 70.3733 167.654C72.5766 166.561 74.7181 165.348 76.7881 164.02C76.8847 163.946 76.9526 163.841 76.9801 163.723C77.0076 163.604 76.9929 163.48 76.9386 163.372C76.8843 163.263 76.7937 163.177 76.6826 163.128C76.5715 163.079 76.4468 163.07 76.3299 163.103ZM67.0869 167.97C65.362 168.778 63.6797 169.675 62.0467 170.656C61.5411 171.114 62.1415 171.872 62.7419 171.588C63.3423 171.303 66.7077 169.218 67.4819 168.854C68.2561 168.491 67.6715 167.717 67.0869 167.97ZM130.714 181.131C131.282 181.494 131.82 180.625 131.267 180.246C130.066 179.456 125.5 176.075 124.236 175.411C124.072 175.333 123.885 175.316 123.711 175.366C123.536 175.415 123.385 175.527 123.288 175.68C122.64 176.691 124.82 177.26 130.714 181.131ZM108.831 166.532C109.621 167.085 110.411 167.606 111.216 168.112C116.604 171.683 116.351 171.793 116.683 171.793C116.792 171.792 116.899 171.758 116.989 171.696C117.079 171.634 117.148 171.547 117.189 171.446C117.229 171.344 117.239 171.233 117.217 171.126C117.194 171.019 117.14 170.922 117.062 170.845C114.664 168.871 112.158 167.03 109.557 165.331C108.799 164.873 108.104 166.042 108.831 166.532ZM264.413 218.893C261.822 219.256 259.152 219.525 256.513 220.125C256.351 220.176 256.212 220.282 256.121 220.426C256.031 220.569 255.995 220.741 256.019 220.909C256.044 221.077 256.128 221.23 256.257 221.342C256.385 221.453 256.549 221.515 256.719 221.516C257.335 221.516 261.269 220.457 264.619 219.936C265.44 219.873 265.124 218.767 264.413 218.893ZM250.446 221.453C247.792 221.848 244.869 222.085 241.993 222.574C241.187 222.717 241.408 223.886 242.198 223.886C242.988 223.886 248.645 222.748 250.651 222.432C251.299 222.322 251.078 221.358 250.446 221.453ZM154.84 164.81C154.761 164.676 154.631 164.579 154.48 164.54C154.329 164.502 154.168 164.525 154.034 164.604C153.9 164.684 153.803 164.814 153.765 164.965C153.726 165.116 153.749 165.276 153.829 165.41C154.609 166.681 155.837 167.612 157.271 168.019C158.706 168.426 160.24 168.278 161.571 167.606C161.66 167.552 161.725 167.466 161.753 167.366C161.781 167.265 161.77 167.158 161.721 167.066C161.673 166.973 161.592 166.902 161.493 166.868C161.395 166.833 161.287 166.838 161.192 166.879C160.059 167.336 158.801 167.378 157.639 167C156.478 166.621 155.487 165.846 154.84 164.81ZM165.9 158.964C165.79 159.88 164.968 159.374 164.905 159.927C164.905 160.228 165.158 160.338 165.474 160.338C165.754 160.329 166.027 160.244 166.264 160.094C166.501 159.944 166.694 159.733 166.823 159.484C166.951 159.234 167.011 158.955 166.996 158.675C166.981 158.395 166.892 158.124 166.738 157.889C165.851 156.939 165.043 155.919 164.32 154.84C164.293 154.741 164.228 154.658 164.139 154.607C164.05 154.557 163.945 154.544 163.846 154.571C163.748 154.599 163.664 154.664 163.614 154.753C163.563 154.842 163.55 154.947 163.578 155.045C163.949 155.881 164.415 156.671 164.968 157.399C165.329 157.889 165.641 158.413 165.9 158.964ZM157.51 147.398C157.468 147.21 157.353 147.045 157.19 146.942C157.027 146.838 156.83 146.803 156.641 146.845C156.453 146.887 156.289 147.002 156.185 147.165C156.081 147.328 156.046 147.525 156.088 147.714C156.531 150.716 156.262 151.996 157.447 151.996C157.673 151.996 157.89 151.906 158.05 151.746C158.21 151.586 158.3 151.369 158.3 151.143C158.3 150.748 157.637 148.062 157.51 147.398ZM169.929 147.54C169.896 147.368 169.801 147.214 169.662 147.106C169.524 146.998 169.351 146.944 169.176 146.953C169.001 146.963 168.835 147.036 168.709 147.158C168.583 147.28 168.506 147.444 168.491 147.619C168.491 147.856 168.713 150.684 168.792 150.906C168.815 151.115 168.92 151.307 169.084 151.439C169.249 151.571 169.459 151.632 169.668 151.609C169.878 151.586 170.07 151.48 170.202 151.316C170.333 151.151 170.395 150.941 170.372 150.732C170.34 150.542 170.087 148.994 169.929 147.54ZM155.03 146.592C155.233 145.921 155.653 145.335 156.225 144.929C156.798 144.523 157.489 144.319 158.19 144.349C158.313 144.363 158.436 144.33 158.536 144.257C158.636 144.183 158.704 144.075 158.727 143.954C158.885 142.816 154.635 143.274 153.703 146.229C153.654 146.405 153.678 146.593 153.768 146.751C153.859 146.91 154.008 147.026 154.184 147.074C154.36 147.122 154.548 147.099 154.707 147.008C154.865 146.918 154.982 146.768 155.03 146.592ZM166.848 143.78C167.423 143.747 167.993 143.903 168.47 144.226C168.946 144.549 169.304 145.019 169.487 145.565C169.771 146.181 170.767 145.771 170.577 145.107C170.267 144.362 169.71 143.747 168.998 143.367C168.287 142.987 167.466 142.865 166.674 143.021C166.589 143.058 166.519 143.123 166.476 143.205C166.434 143.288 166.422 143.383 166.443 143.474C166.464 143.564 166.516 143.645 166.59 143.701C166.664 143.757 166.755 143.785 166.848 143.78ZM288.777 196.947C288.777 196.947 287.939 193.123 287.718 192.017C287.691 191.894 287.616 191.786 287.509 191.718C287.402 191.65 287.273 191.627 287.149 191.654C287.026 191.681 286.918 191.756 286.85 191.863C286.782 191.97 286.759 192.099 286.786 192.223L287.529 196.726C285.019 196.408 282.47 196.627 280.051 197.369C277.632 198.11 275.398 199.358 273.498 201.028C271.598 202.698 270.074 204.753 269.028 207.057C267.982 209.36 267.438 211.86 267.431 214.39C268.379 238.201 302.554 237.727 303.028 214.39C303.06 210.277 301.653 206.282 299.051 203.096C296.448 199.911 292.814 197.736 288.777 196.947ZM292.853 221.863C290.357 228.958 280.94 227.694 280.94 219.225V214.106C280.664 214.141 280.384 214.117 280.118 214.035C279.852 213.954 279.606 213.817 279.397 213.633C279.188 213.449 279.021 213.223 278.906 212.969C278.792 212.716 278.732 212.441 278.732 212.162C278.732 211.884 278.792 211.609 278.906 211.355C279.021 211.102 279.188 210.876 279.397 210.692C279.606 210.508 279.852 210.371 280.118 210.289C280.384 210.208 280.664 210.184 280.94 210.219C280.94 208.639 280.94 207.059 281.051 205.337C281.057 205.081 281.113 204.83 281.216 204.596C281.32 204.363 281.468 204.152 281.653 203.976C281.838 203.8 282.056 203.662 282.294 203.57C282.532 203.478 282.786 203.434 283.041 203.441C283.558 203.457 284.048 203.677 284.403 204.053C284.758 204.429 284.95 204.93 284.937 205.447C284.937 207.106 284.937 208.686 284.843 210.187H288.176C288.431 210.181 288.685 210.226 288.923 210.319C289.16 210.412 289.376 210.552 289.559 210.73C289.742 210.908 289.887 211.121 289.986 211.356C290.085 211.591 290.136 211.844 290.136 212.099C290.14 212.356 290.093 212.61 289.998 212.849C289.903 213.087 289.762 213.305 289.583 213.488C289.404 213.672 289.19 213.818 288.954 213.919C288.718 214.019 288.465 214.072 288.208 214.074H284.795C284.795 219.841 284.637 220.805 285.427 221.784C286.549 223.206 288.255 222.732 289.14 220.552C289.314 220.06 289.676 219.657 290.148 219.431C290.619 219.206 291.16 219.177 291.652 219.351C292.145 219.525 292.548 219.888 292.773 220.359C292.998 220.83 293.027 221.371 292.853 221.863ZM161.808 16.4951C158.574 16.4783 155.369 17.1027 152.378 18.3321C149.386 19.5615 146.669 21.3715 144.381 23.6575C142.093 25.9435 140.282 28.6603 139.05 31.6507C137.819 34.6411 137.193 37.8459 137.207 41.0799C137.855 73.6279 185.761 73.6437 186.393 41.0799C186.41 37.8467 185.785 34.6422 184.555 31.6519C183.326 28.6616 181.516 25.9447 179.229 23.6584C176.943 21.3722 174.226 19.5619 171.236 18.3323C168.246 17.1028 165.041 16.4783 161.808 16.4951ZM168.902 28.9139C168.66 29.3676 168.25 29.708 167.759 29.8617C167.268 30.0154 166.737 29.9701 166.279 29.7355C165.464 29.2874 164.518 29.14 163.605 29.3191C162.692 29.4981 161.872 29.9922 161.287 30.7151C159.47 32.6111 159.549 39.0575 159.549 39.4051L164.289 38.6783C164.8 38.6007 165.321 38.7295 165.737 39.0362C166.153 39.3428 166.431 39.8023 166.508 40.3136C166.586 40.8248 166.457 41.3459 166.151 41.7622C165.844 42.1785 165.384 42.4559 164.873 42.5335L159.564 43.3393C159.564 47.0997 159.738 50.7337 159.865 54.3993C159.842 54.8905 159.636 55.3554 159.286 55.7015C158.937 56.0476 158.47 56.2497 157.979 56.2676C157.487 56.2855 157.007 56.118 156.633 55.7982C156.26 55.4784 156.02 55.0298 155.962 54.5415C155.788 49.3591 155.662 44.0977 155.599 38.4729C155.599 35.3129 155.599 31.1891 158.411 28.0765C162.819 23.2575 170.64 25.6749 168.902 28.9139Z" fill="#0E3A99"/>
<path d="M236.653 229.1C243.115 210.329 242.799 211.435 242.688 211.277C242.578 211.119 222.148 210.74 210.804 210.961C206.28 204.178 200.367 198.433 193.457 194.105C186.547 189.777 178.797 186.965 170.719 185.855C169.491 184.508 167.797 183.678 165.979 183.533L164.004 182.853C163.926 181.311 163.926 179.766 164.004 178.224C168.438 176.535 172.06 173.218 174.132 168.949C176.455 163.735 175.301 157.068 173.942 140.114C177.197 141.125 177.276 137.776 175.301 135.153C175.39 134.593 175.362 134.02 175.219 133.471C175.075 132.921 174.819 132.408 174.467 131.963C174.116 131.517 173.675 131.15 173.174 130.883C172.673 130.616 172.123 130.456 171.557 130.413C171.86 129.947 172.036 129.409 172.065 128.853C172.094 128.298 171.976 127.744 171.723 127.249C171.47 126.753 171.09 126.333 170.622 126.032C170.155 125.73 169.616 125.557 169.06 125.531C168.731 124.808 168.184 124.206 167.495 123.809C166.807 123.412 166.012 123.241 165.221 123.319C165.109 122.787 164.857 122.295 164.492 121.894C164.126 121.492 163.66 121.195 163.141 121.034C162.622 120.873 162.07 120.854 161.541 120.978C161.013 121.101 160.526 121.364 160.133 121.739C159.801 121.233 158.98 119.985 158.553 119.511C158.891 119.179 159.123 118.754 159.221 118.291C159.32 117.827 159.28 117.345 159.106 116.904C159.88 116.662 160.557 116.179 161.037 115.525C161.518 114.871 161.777 114.081 161.777 113.27C161.777 112.459 161.518 111.669 161.037 111.015C160.557 110.362 159.88 109.878 159.106 109.636C160.354 105.086 156.088 102.289 152.217 104.106C152.008 103.584 151.649 103.136 151.185 102.818C150.721 102.5 150.173 102.327 149.61 102.321C152.77 98.3391 148.267 95.5583 143.986 96.9171C143.704 96.1948 143.231 95.5628 142.617 95.0892C142.004 94.6155 141.273 94.318 140.503 94.2287C139.732 94.1393 138.953 94.2615 138.247 94.582C137.541 94.9026 136.936 95.4094 136.496 96.0481C135.46 95.7758 134.357 95.9212 133.427 96.4531C132.496 96.9849 131.811 97.8606 131.519 98.8921C130.856 98.7358 130.166 98.7284 129.5 98.8704C128.833 99.0125 128.206 99.3005 127.664 99.7137C127.303 99.0886 126.726 98.6167 126.041 98.3861C125.357 98.1556 124.612 98.1822 123.946 98.461C123.28 98.7399 122.738 99.2518 122.422 99.9011C122.106 100.55 122.037 101.293 122.229 101.989C121.792 102.111 121.404 102.367 121.121 102.722C120.837 103.076 120.672 103.511 120.649 103.964C120.475 103.935 120.297 103.943 120.127 103.987C119.956 104.032 119.797 104.112 119.66 104.222C119.522 104.333 119.41 104.471 119.33 104.628C119.25 104.785 119.204 104.957 119.195 105.133C118.784 105.029 118.351 105.047 117.95 105.185C117.548 105.323 117.196 105.575 116.936 105.911C116.676 106.246 116.519 106.651 116.486 107.074C116.452 107.497 116.543 107.921 116.746 108.293C116.232 108.409 115.762 108.673 115.397 109.054C115.032 109.435 114.787 109.914 114.692 110.433C114.598 110.952 114.659 111.488 114.867 111.972C115.074 112.457 115.421 112.87 115.862 113.159C113.365 113.886 111.754 116.319 112.702 118.531C109.858 120.254 108.688 123.745 110.695 126.179C110.334 127.183 110.35 128.284 110.739 129.278C111.128 130.272 111.865 131.091 112.812 131.582C112.399 132.09 112.136 132.704 112.054 133.353C111.971 134.003 112.072 134.663 112.345 135.258C112.618 135.853 113.052 136.36 113.598 136.721C114.144 137.082 114.78 137.284 115.435 137.302C115.483 137.874 115.679 138.424 116.002 138.899C116.325 139.374 116.766 139.757 117.281 140.011C117.796 140.265 118.368 140.382 118.941 140.351C119.515 140.319 120.07 140.14 120.554 139.83C120.812 140.241 121.184 140.567 121.625 140.768C122.065 140.97 122.555 141.038 123.034 140.964C123.513 140.89 123.96 140.677 124.32 140.352C124.679 140.027 124.936 139.604 125.057 139.135C125.831 139.425 126.661 139.534 127.483 139.452C128.305 139.37 129.097 139.099 129.797 138.661C129.149 142.595 126.163 142.879 127.095 147.003C126.545 147.727 126.24 148.609 126.226 149.518C126.212 150.428 126.489 151.318 127.016 152.059C126.837 152.44 126.736 152.853 126.719 153.274C126.701 153.694 126.768 154.114 126.915 154.509C127.062 154.903 127.287 155.264 127.576 155.571C127.864 155.877 128.211 156.123 128.596 156.293C128.449 156.584 128.379 156.907 128.393 157.233C128.408 157.558 128.507 157.874 128.681 158.15C128.854 158.425 129.097 158.651 129.384 158.805C129.671 158.958 129.993 159.035 130.319 159.027C130.629 160.189 131.226 161.254 132.054 162.126C132.882 162.998 133.915 163.649 135.059 164.02C135.217 183.88 135.943 181.494 134.047 183.801C132.301 184.719 130.87 186.139 129.939 187.878C102.226 197.5 91.0398 219.478 87.3742 248.976C85.257 248.644 85.1622 248.565 85.0832 248.834C84.2303 252.154 83.9313 255.592 84.1984 259.009C84.1984 259.215 84.1984 259.199 86.7264 259.815C87.4374 271.997 94.026 285.206 107.266 287.528C107.093 290.088 106.887 304.75 107.266 308.068C107.283 308.146 107.326 308.215 107.388 308.265C107.45 308.315 107.527 308.342 107.606 308.342C107.686 308.342 107.762 308.315 107.824 308.265C107.886 308.215 107.929 308.146 107.946 308.068C107.946 306.299 108.167 290.404 108.309 287.765C116.351 288.555 121.06 285.19 127.396 278.285C137.35 267.225 142.99 255.296 148.868 242.783C149.9 240.763 150.731 238.646 151.348 236.463C152.276 236.838 153.298 236.909 154.268 236.668C155.239 236.427 156.108 235.885 156.752 235.12C159.015 235.85 161.419 236.034 163.767 235.657C164.164 235.583 164.542 235.428 164.877 235.202C165.211 234.976 165.496 234.683 165.712 234.342C165.929 234.001 166.073 233.619 166.135 233.22C166.197 232.821 166.176 232.414 166.074 232.023C168.096 231.928 169.36 230.095 167.338 228.563C166.694 228.068 166.013 227.624 165.3 227.235C166.975 227.125 171.399 226.635 172.836 225.655C174.274 224.676 174.227 222.227 172.236 221.958C171.399 221.848 159.09 222.353 156.294 222.748C153.527 223.041 150.906 224.14 148.757 225.908C145.597 228.515 123.256 247.08 115.277 253.779C110.648 252.942 93.2992 249.972 88.6856 249.245C92.5092 217.376 105.497 198.321 129.513 189.347C128.043 195.351 135.153 201.513 137.413 203.346C141.126 206.395 147.193 209.666 152.391 208.244C155.693 207.359 158.158 204.815 159.738 200.66C166.753 206.743 170.056 206.063 171.162 205.495C175.412 203.267 175.238 192.428 171.699 187.214C179.282 188.388 186.541 191.115 193.022 195.222C199.504 199.33 205.068 204.731 209.366 211.088C202.114 211.246 202.556 211.246 202.493 211.435C200.78 216.058 199.115 220.698 197.5 225.355C196.868 221.421 195.92 216.065 195.509 214.516C195.474 214.432 195.41 214.363 195.328 214.322C195.246 214.282 195.152 214.272 195.064 214.295C194.975 214.318 194.898 214.372 194.846 214.448C194.795 214.524 194.772 214.615 194.783 214.706C195.241 216.634 196.189 223.949 196.71 227.646C190.295 246.211 185.271 262.943 185.397 263.117C185.524 263.291 201.197 263.291 203.22 263.259C204.8 276.468 206.001 304.008 205.953 307.278C205.953 307.37 205.99 307.459 206.055 307.524C206.12 307.589 206.209 307.626 206.301 307.626C206.393 307.626 206.481 307.589 206.547 307.524C206.612 307.459 206.648 307.37 206.648 307.278C206.933 301.464 206.648 283.989 206.38 280.213C210.116 279.593 213.54 277.748 216.113 274.967C218.04 272.992 220.853 267.146 222.796 262.438C225.861 262.232 225.956 262.28 225.956 262.074C227.757 257.887 229.543 252.958 231.044 248.155C238.501 247.033 242.277 236.573 239.26 231.833C238.583 230.756 237.696 229.827 236.653 229.1ZM107.835 262.691C108.846 262.517 107.725 261.111 145.866 229.763C152.186 224.597 152.676 224.107 160.339 223.586C163.183 223.396 170.561 223.127 171.399 223.112C172.046 223.112 172.615 223.112 172.568 223.696C172.568 224.707 170.988 225.008 169.898 225.276C166.627 226.068 163.277 226.481 159.912 226.509C159.811 226.509 159.715 226.549 159.644 226.62C159.573 226.691 159.533 226.787 159.533 226.888C159.533 226.988 159.573 227.085 159.644 227.156C159.715 227.227 159.811 227.267 159.912 227.267H163.198C164.206 227.755 165.168 228.331 166.074 228.989C166.453 229.258 167.133 229.511 167.18 229.874C167.433 231.975 162.124 230.032 160.26 229.131C160.195 229.098 160.119 229.092 160.049 229.114C159.98 229.136 159.922 229.185 159.888 229.25C159.855 229.315 159.848 229.391 159.871 229.46C159.893 229.53 159.942 229.588 160.007 229.621C161.35 230.459 165.995 232.086 164.921 233.666C163.546 235.657 159.944 234.804 157.558 234.33C158.056 233.927 158.656 233.668 159.291 233.582C159.926 233.495 160.572 233.585 161.16 233.84C161.241 233.86 161.325 233.851 161.4 233.814C161.474 233.777 161.532 233.715 161.565 233.639C161.597 233.562 161.601 233.477 161.576 233.398C161.551 233.319 161.499 233.252 161.429 233.208C160.458 232.799 159.385 232.703 158.357 232.932C157.329 233.162 156.398 233.705 155.693 234.488C153.813 236.289 151.475 235.862 149.658 234.029C149.593 233.972 149.51 233.94 149.423 233.938C149.336 233.937 149.252 233.966 149.185 234.022C149.118 234.077 149.074 234.154 149.059 234.24C149.044 234.325 149.06 234.413 149.105 234.488C149.468 235.046 149.941 235.524 150.495 235.894C147.68 242.817 144.516 249.594 141.015 256.197C134.695 268.047 128.28 276.421 121.076 282.52C113.27 289.235 101.8 286.77 95.211 279.091C91.261 274.525 88.7804 268.126 87.864 260.131C91.1504 260.7 104.28 262.58 107.835 262.691ZM135.232 130.887C133.869 131.845 132.815 133.179 132.199 134.726C131.582 134.182 131.105 133.498 130.808 132.73C130.511 131.963 130.403 131.136 130.492 130.318C131.899 123.998 138.392 118.468 143.78 116.841C147.098 115.498 155.535 116.999 158.253 121.059C157.366 120.979 156.482 121.233 155.772 121.77C155.347 121.218 154.803 120.768 154.18 120.455C153.556 120.142 152.87 119.974 152.173 119.963C151.476 119.953 150.785 120.1 150.152 120.394C149.52 120.687 148.962 121.12 148.52 121.66C147.656 121.912 146.875 122.392 146.261 123.05C145.679 122.739 145.02 122.604 144.363 122.663C143.706 122.722 143.08 122.972 142.564 123.382C142.013 123.531 141.53 123.862 141.191 124.321C140.853 124.78 140.679 125.34 140.699 125.91C140.006 125.841 139.305 125.919 138.644 126.139C137.982 126.358 137.374 126.713 136.859 127.183C136.343 127.652 135.932 128.224 135.652 128.862C135.372 129.5 135.229 130.19 135.232 130.887ZM165.11 196.536C157.732 204.183 135.564 195.272 134.126 188.162C134.013 187.398 134.081 186.618 134.325 185.885C134.569 185.152 134.983 184.487 135.533 183.943C135.691 183.785 135.801 183.612 135.959 183.454C135.978 183.408 135.978 183.357 135.959 183.311L136.259 182.932C136.654 182.19 136.165 166.469 136.086 164.209C136.68 164.217 137.262 164.036 137.748 163.693C138.233 163.349 138.597 162.861 138.787 162.297C139.124 162.481 139.507 162.56 139.889 162.526C140.27 162.492 140.633 162.346 140.932 162.106C141.231 161.866 141.452 161.544 141.568 161.179C141.684 160.813 141.69 160.422 141.584 160.054L145.471 155.883C145.465 156.401 145.609 156.911 145.883 157.351C146.158 157.791 146.553 158.143 147.022 158.365C147.49 158.588 148.013 158.672 148.528 158.607C149.042 158.542 149.528 158.332 149.926 158C150.335 157.703 150.673 157.32 150.916 156.877C151.159 156.435 151.301 155.944 151.333 155.44C151.339 155.386 151.326 155.331 151.296 155.285C151.266 155.239 151.222 155.205 151.17 155.188C151.118 155.171 151.061 155.173 151.01 155.193C150.959 155.213 150.917 155.25 150.89 155.298C150.628 155.692 150.239 155.984 149.788 156.128C149.338 156.271 148.851 156.257 148.41 156.088C148.564 155.433 148.534 154.748 148.322 154.109C148.11 153.47 147.724 152.903 147.209 152.47C144.839 144.886 145.06 141.884 149.31 139.04C152.47 136.654 163.53 131.345 170.972 138.123C171.484 138.717 172.093 139.22 172.773 139.609C174.701 165.852 175.933 166.2 168.728 173.816C166.521 176.054 163.582 177.422 160.449 177.671C159.896 177.671 159.833 178.477 160.449 178.54C161.251 178.65 162.065 178.65 162.867 178.54C162.867 183.896 162.63 183.485 164.162 184.022C169.392 186.44 168.934 192.539 165.11 196.536ZM211.578 276.832C209.918 277.752 208.144 278.448 206.301 278.901C206.064 276.247 205.1 267.841 204.468 263.101C210.219 262.975 216.002 262.738 221.516 262.39C219.209 268.142 215.718 274.809 211.578 276.832ZM222.022 224.692C218.546 224.597 218.546 220.299 222.022 220.204C225.498 220.11 225.498 224.676 222.022 224.771V224.692ZM207.944 216.555C207.206 216.995 206.609 217.636 206.222 218.403C205.748 219.304 192.176 256.228 191.528 258.33C191.494 258.443 191.417 258.538 191.313 258.594C191.21 258.651 191.088 258.664 190.975 258.63C190.862 258.597 190.766 258.519 190.71 258.416C190.654 258.312 190.641 258.19 190.675 258.077C191.48 255.091 203.188 221.563 203.315 221.358C206.111 214.374 207.201 214.485 212.542 214.311C214.991 214.232 232.813 214.153 235.389 214.58C235.957 214.674 235.831 215.48 235.389 215.528C233.982 215.701 209.05 216.081 207.944 216.634V216.555ZM231.518 246.575C232.118 244.552 232.671 242.577 233.098 240.697C233.801 240.981 234.532 241.193 235.278 241.329C235.36 241.348 235.446 241.334 235.517 241.289C235.588 241.245 235.638 241.174 235.657 241.092C235.676 241.01 235.662 240.925 235.617 240.853C235.573 240.782 235.502 240.732 235.42 240.713C233.698 240.039 232.097 239.089 230.68 237.9C229.716 236.81 229.274 236.004 230.396 235.214C232.545 236.905 235.341 238.374 236.368 239.117C236.434 239.149 236.508 239.158 236.579 239.142C236.65 239.125 236.713 239.085 236.758 239.027C236.803 238.97 236.826 238.898 236.824 238.825C236.822 238.752 236.795 238.682 236.747 238.627C235.594 237.584 231.691 234.962 229.653 232.923C229.621 232.601 229.689 232.277 229.847 231.994C230.005 231.712 230.246 231.484 230.538 231.343C232.371 232.942 234.374 234.336 236.51 235.499C236.58 235.541 236.663 235.555 236.743 235.537C236.822 235.519 236.892 235.472 236.937 235.404C237.174 235.104 236.937 234.993 235.357 233.682C234.172 232.702 232.513 231.328 231.296 230.127C229.574 228.547 232.876 228.831 235.894 230.127C236.945 230.727 237.801 231.616 238.362 232.689C238.922 233.762 239.162 234.973 239.054 236.178C238.817 240.744 236.005 245.484 231.518 246.733V246.575ZM102.037 19.0389C101.402 19.1314 100.755 19.0031 100.204 18.6755C99.8399 17.7499 99.2234 16.9452 98.4245 16.353C97.6256 15.7608 96.6763 15.4049 95.685 15.3259C93.2676 15.4839 92.7936 18.8967 90.945 19.1495C89.839 19.3075 88.4802 18.1699 86.9002 15.7999C86.8808 15.7598 86.8505 15.726 86.8128 15.7024C86.7751 15.6787 86.7314 15.6662 86.6869 15.6662C86.6424 15.6662 86.5988 15.6787 86.561 15.7024C86.5233 15.726 86.493 15.7598 86.4736 15.7999C86.2993 16.3929 86.2472 17.0152 86.3206 17.629C86.3939 18.2428 86.5911 18.8353 86.9002 19.3707C86.6442 19.3589 86.4019 19.2518 86.2208 19.0705C85.6836 18.5491 85.415 20.4767 86.7106 21.8039C86.3129 21.7827 85.9247 21.6748 85.573 21.4879C84.783 20.8717 85.1148 24.1265 87.706 25.6117C86.9731 25.5653 86.257 25.3722 85.6002 25.0438C84.9434 24.7154 84.3592 24.2584 83.8824 23.6999C83.8513 23.6568 83.8067 23.6254 83.7556 23.6107C83.7045 23.596 83.65 23.599 83.6008 23.619C83.5515 23.6391 83.5105 23.6751 83.4842 23.7213C83.4579 23.7674 83.4479 23.8211 83.4558 23.8737C83.7366 26.2177 84.8201 28.3923 86.5222 30.0283C88.2243 31.6642 90.4402 32.6605 92.7936 32.8481C98.0234 32.8481 101.326 27.2233 100.109 22.9099C100.418 22.8128 100.748 22.8128 101.057 22.9099C101.103 22.9441 101.159 22.9607 101.216 22.9567C101.273 22.9526 101.326 22.9282 101.367 22.8879C101.407 22.8475 101.432 22.794 101.436 22.7371C101.44 22.6802 101.423 22.6237 101.389 22.5781C101.227 22.3204 101.119 22.0327 101.072 21.7323C101.024 21.4319 101.037 21.125 101.111 20.8299C101.185 20.5348 101.317 20.2577 101.501 20.0151C101.684 19.7725 101.915 19.5694 102.179 19.4181C102.204 19.3861 102.22 19.3481 102.227 19.3079C102.233 19.2677 102.229 19.2266 102.214 19.1885C102.2 19.1504 102.176 19.1166 102.145 19.0904C102.114 19.0642 102.077 19.0465 102.037 19.0389ZM97.1702 20.2555C96.8573 20.2205 96.5683 20.0715 96.3583 19.8368C96.1484 19.6022 96.0324 19.2984 96.0324 18.9836C96.0324 18.6687 96.1484 18.3649 96.3583 18.1303C96.5683 17.8956 96.8573 17.7466 97.1702 17.7117C97.4831 17.7466 97.7721 17.8956 97.9821 18.1303C98.192 18.3649 98.308 18.6687 98.308 18.9836C98.308 19.2984 98.192 19.6022 97.9821 19.8368C97.7721 20.0715 97.4831 20.2205 97.1702 20.2555ZM54.6208 177.797C49.4729 177.51 44.309 177.77 39.2158 178.571C39.1628 178.579 39.1143 178.606 39.0794 178.646C39.0446 178.687 39.0257 178.739 39.0262 178.793C39.0133 181.543 39.3856 184.282 40.1322 186.93C40.1474 186.973 40.1749 187.011 40.2114 187.039C40.2479 187.067 40.2917 187.084 40.3376 187.088C44.9095 187.451 49.5071 187.324 54.052 186.708C54.9526 186.582 55.6004 177.86 54.6208 177.797ZM50.3706 182.964C50.2661 183.479 50.012 183.951 49.6402 184.323C49.2684 184.694 48.7953 184.947 48.2802 185.051C47.7652 185.154 47.231 185.103 46.7446 184.905C46.2582 184.706 45.8411 184.369 45.5457 183.934C45.2503 183.5 45.0896 182.988 45.0837 182.462C45.0779 181.937 45.2271 181.422 45.5128 180.981C45.7985 180.54 46.2079 180.193 46.6898 179.984C47.1716 179.774 47.7046 179.712 48.2218 179.804C48.5724 179.866 48.9069 179.998 49.2057 180.192C49.5045 180.385 49.7616 180.637 49.9618 180.931C50.162 181.226 50.3013 181.557 50.3715 181.906C50.4418 182.255 50.4414 182.615 50.3706 182.964ZM51.287 175.98C51.563 176.031 51.8462 176.027 52.1206 175.968C52.395 175.91 52.6552 175.798 52.8863 175.639C53.1174 175.479 53.3148 175.276 53.4674 175.041C53.62 174.805 53.7247 174.542 53.7755 174.266C53.8263 173.99 53.8223 173.707 53.7637 173.432C53.705 173.158 53.5929 172.898 53.4337 172.667C53.2746 172.436 53.0714 172.238 52.8359 172.086C52.6004 171.933 52.3372 171.828 52.0612 171.777C51.5039 171.675 50.9286 171.798 50.4619 172.119C49.9952 172.441 49.6754 172.934 49.5727 173.492C49.47 174.049 49.593 174.624 49.9145 175.091C50.236 175.558 50.7297 175.878 51.287 175.98Z" fill="#0E3A99"/>
<path d="M59.6293 170.767C51.7293 159.328 33.7489 163.373 31.5685 176.818C31.1272 179.071 31.1977 181.393 31.7751 183.614C32.3524 185.835 33.4217 187.898 34.9038 189.65C36.3859 191.403 38.243 192.799 40.3377 193.737C42.4323 194.674 44.711 195.129 47.0051 195.067C60.1507 195.067 66.3601 180.563 59.6293 170.767ZM56.3113 188.147C56.3018 188.192 56.2784 188.233 56.2444 188.264C56.2104 188.295 56.1675 188.315 56.1217 188.321C50.2516 189.108 44.3146 189.272 38.4099 188.811C38.3628 188.804 38.3185 188.784 38.2822 188.753C38.2458 188.723 38.2189 188.682 38.2045 188.637C36.6351 182.822 36.3441 176.737 37.3513 170.799C37.3585 170.748 37.3828 170.702 37.4203 170.667C37.4577 170.633 37.5059 170.612 37.5567 170.609C43.913 169.879 50.3356 169.948 56.6747 170.814C56.7218 170.823 56.765 170.846 56.7989 170.88C56.8327 170.914 56.8555 170.957 56.8643 171.004C57.854 176.701 57.6658 182.541 56.3113 188.163V188.147Z" fill="#0E3A99"/>
</svg>
